<mxfile host="app.diagrams.net" agent="Mozilla/5.0 (X11; Linux x86_64; rv:136.0) Gecko/20100101 Firefox/136.0" version="26.2.3">
  <diagram id="9EhcTie6NZu4tCn4s0fb" name="Page-1">
    <mxGraphModel dx="717" dy="387" grid="1" gridSize="10" guides="1" tooltips="1" connect="1" arrows="1" fold="1" page="1" pageScale="1" pageWidth="827" pageHeight="1169" math="0" shadow="0">
      <root>
        <mxCell id="0" />
        <mxCell id="1" parent="0" />
        <mxCell id="s6GvZxLl4K5e8J9JrSwZ-2" value="" style="whiteSpace=wrap;html=1;fillColor=none;fontFamily=Roboto Condensed;glass=0;shadow=0;strokeColor=default;strokeWidth=1;rounded=0;fontSource=https%3A%2F%2Ffonts.googleapis.com%2Fcss%3Ffamily%3DRoboto%2BCondensed;" parent="1" vertex="1">
          <mxGeometry x="200" y="210" width="680" height="150" as="geometry" />
        </mxCell>
        <mxCell id="s6GvZxLl4K5e8J9JrSwZ-1" value="message&lt;div&gt;queue&lt;/div&gt;" style="shape=hexagon;perimeter=hexagonPerimeter2;whiteSpace=wrap;html=1;fixedSize=1;fontFamily=Roboto Condensed;horizontal=1;fontSize=14;fontSource=https%3A%2F%2Ffonts.googleapis.com%2Fcss%3Ffamily%3DRoboto%2BCondensed;" parent="1" vertex="1">
          <mxGeometry x="334" y="400.05" width="120" height="80" as="geometry" />
        </mxCell>
        <mxCell id="s6GvZxLl4K5e8J9JrSwZ-3" value="Exchange" style="text;strokeColor=none;fillColor=none;html=1;fontSize=14;fontStyle=0;verticalAlign=middle;align=center;fontFamily=Roboto Condensed;fontSource=https%3A%2F%2Ffonts.googleapis.com%2Fcss%3Ffamily%3DRoboto%2BCondensed;" parent="1" vertex="1">
          <mxGeometry x="800" y="210" width="80" height="30" as="geometry" />
        </mxCell>
        <mxCell id="UsQS2KoAoGEQXFjzZ4PK-4" value="" style="edgeStyle=orthogonalEdgeStyle;rounded=0;orthogonalLoop=1;jettySize=auto;html=1;fontFamily=Roboto Condensed;fontSource=https%3A%2F%2Ffonts.googleapis.com%2Fcss%3Ffamily%3DRoboto%2BCondensed;" parent="1" source="UsQS2KoAoGEQXFjzZ4PK-3" target="s6GvZxLl4K5e8J9JrSwZ-2" edge="1">
          <mxGeometry relative="1" as="geometry" />
        </mxCell>
        <mxCell id="UsQS2KoAoGEQXFjzZ4PK-3" value="producer" style="ellipse;whiteSpace=wrap;html=1;aspect=fixed;horizontal=1;fontFamily=Roboto Condensed;fontSize=14;fontSource=https%3A%2F%2Ffonts.googleapis.com%2Fcss%3Ffamily%3DRoboto%2BCondensed;" parent="1" vertex="1">
          <mxGeometry x="500" y="10" width="80" height="80" as="geometry" />
        </mxCell>
        <mxCell id="tCBcID6sHDaUzBHMdhAB-3" value="&lt;span&gt;The producer is supposed to send the data through a TCP/IP conn in a way that the exchange can understand and process&lt;/span&gt;" style="text;align=left;verticalAlign=middle;whiteSpace=wrap;rounded=0;fontSize=11;fontFamily=Roboto Condensed;html=1;shadow=0;horizontal=1;fontSource=https%3A%2F%2Ffonts.googleapis.com%2Fcss%3Ffamily%3DRoboto%2BCondensed;" parent="1" vertex="1">
          <mxGeometry x="580" y="150" width="190" height="45" as="geometry" />
        </mxCell>
        <mxCell id="tCBcID6sHDaUzBHMdhAB-4" value="&lt;font style=&quot;font-size: 11px;&quot;&gt;payload&lt;/font&gt;" style="shape=parallelogram;html=1;strokeWidth=1;perimeter=parallelogramPerimeter;whiteSpace=wrap;rounded=1;arcSize=12;size=0.23;fontFamily=Roboto Condensed;fontSource=https%3A%2F%2Ffonts.googleapis.com%2Fcss%3Ffamily%3DRoboto%2BCondensed;" parent="1" vertex="1">
          <mxGeometry x="505" y="115" width="70" height="40" as="geometry" />
        </mxCell>
        <mxCell id="tCBcID6sHDaUzBHMdhAB-5" value="&lt;span&gt;Essentially a middleware, the exchange will process the payload and then store it in the message queue that corresponds&lt;/span&gt;&lt;div&gt;&lt;span&gt;&lt;br&gt;&lt;/span&gt;&lt;/div&gt;&lt;div&gt;&lt;span&gt;The exchange matches the payload with the bindings and, accordingly, determines in what queue to store it&lt;/span&gt;&lt;/div&gt;" style="text;align=left;verticalAlign=middle;whiteSpace=wrap;rounded=0;fontSize=11;fontFamily=Roboto Condensed;html=1;shadow=0;horizontal=1;fontSource=https%3A%2F%2Ffonts.googleapis.com%2Fcss%3Ffamily%3DRoboto%2BCondensed;" parent="1" vertex="1">
          <mxGeometry x="210" y="220" width="130" height="130" as="geometry" />
        </mxCell>
        <mxCell id="tCBcID6sHDaUzBHMdhAB-6" value="message&lt;div&gt;queue&lt;/div&gt;" style="shape=hexagon;perimeter=hexagonPerimeter2;whiteSpace=wrap;html=1;fixedSize=1;fontFamily=Roboto Condensed;horizontal=1;fontSize=14;fontSource=https%3A%2F%2Ffonts.googleapis.com%2Fcss%3Ffamily%3DRoboto%2BCondensed;" parent="1" vertex="1">
          <mxGeometry x="344" y="410.05" width="120" height="80" as="geometry" />
        </mxCell>
        <mxCell id="tCBcID6sHDaUzBHMdhAB-7" value="message&lt;div&gt;queue&lt;/div&gt;" style="shape=hexagon;perimeter=hexagonPerimeter2;whiteSpace=wrap;html=1;fixedSize=1;fontFamily=Roboto Condensed;horizontal=1;fontSize=14;fontSource=https%3A%2F%2Ffonts.googleapis.com%2Fcss%3Ffamily%3DRoboto%2BCondensed;" parent="1" vertex="1">
          <mxGeometry x="354" y="420.05" width="120" height="80" as="geometry" />
        </mxCell>
        <mxCell id="tCBcID6sHDaUzBHMdhAB-8" value="message&lt;div&gt;queue&lt;/div&gt;" style="shape=hexagon;perimeter=hexagonPerimeter2;whiteSpace=wrap;html=1;fixedSize=1;fontFamily=Roboto Condensed;horizontal=1;fontSize=14;fontSource=https%3A%2F%2Ffonts.googleapis.com%2Fcss%3Ffamily%3DRoboto%2BCondensed;" parent="1" vertex="1">
          <mxGeometry x="364" y="430.05" width="120" height="80" as="geometry" />
        </mxCell>
        <mxCell id="tCBcID6sHDaUzBHMdhAB-9" value="message&lt;div&gt;queue&lt;/div&gt;" style="shape=hexagon;perimeter=hexagonPerimeter2;whiteSpace=wrap;html=1;fixedSize=1;fontFamily=Roboto Condensed;horizontal=1;fontSize=14;fontSource=https%3A%2F%2Ffonts.googleapis.com%2Fcss%3Ffamily%3DRoboto%2BCondensed;" parent="1" vertex="1">
          <mxGeometry x="374" y="440.05" width="120" height="80" as="geometry" />
        </mxCell>
        <mxCell id="h67KXnezlHiRvos_DW-S-2" value="" style="shape=flexArrow;endArrow=classic;html=1;rounded=0;entryX=0.5;entryY=0;entryDx=0;entryDy=0;exitX=0.5;exitY=0.533;exitDx=0;exitDy=0;exitPerimeter=0;fillColor=default;fontFamily=Roboto Condensed;fontSource=https%3A%2F%2Ffonts.googleapis.com%2Fcss%3Ffamily%3DRoboto%2BCondensed;" parent="1" edge="1">
          <mxGeometry width="50" height="50" relative="1" as="geometry">
            <mxPoint x="394" y="339.99999999999994" as="sourcePoint" />
            <mxPoint x="393.9" y="400.05" as="targetPoint" />
          </mxGeometry>
        </mxCell>
        <mxCell id="h67KXnezlHiRvos_DW-S-3" value="" style="shape=flexArrow;endArrow=classic;html=1;rounded=0;entryX=0.5;entryY=0;entryDx=0;entryDy=0;exitX=0.5;exitY=0.533;exitDx=0;exitDy=0;exitPerimeter=0;fillColor=default;fontFamily=Roboto Condensed;fontSource=https%3A%2F%2Ffonts.googleapis.com%2Fcss%3Ffamily%3DRoboto%2BCondensed;" parent="1" edge="1">
          <mxGeometry width="50" height="50" relative="1" as="geometry">
            <mxPoint x="404" y="349.99999999999994" as="sourcePoint" />
            <mxPoint x="403.9" y="410.05" as="targetPoint" />
          </mxGeometry>
        </mxCell>
        <mxCell id="h67KXnezlHiRvos_DW-S-4" value="" style="shape=flexArrow;endArrow=classic;html=1;rounded=0;entryX=0.5;entryY=0;entryDx=0;entryDy=0;exitX=0.5;exitY=0.533;exitDx=0;exitDy=0;exitPerimeter=0;fillColor=default;fontFamily=Roboto Condensed;fontSource=https%3A%2F%2Ffonts.googleapis.com%2Fcss%3Ffamily%3DRoboto%2BCondensed;" parent="1" edge="1">
          <mxGeometry width="50" height="50" relative="1" as="geometry">
            <mxPoint x="414" y="359.99999999999994" as="sourcePoint" />
            <mxPoint x="413.9" y="420.05" as="targetPoint" />
          </mxGeometry>
        </mxCell>
        <mxCell id="h67KXnezlHiRvos_DW-S-5" value="" style="shape=flexArrow;endArrow=classic;html=1;rounded=0;entryX=0.5;entryY=0;entryDx=0;entryDy=0;exitX=0.5;exitY=0.533;exitDx=0;exitDy=0;exitPerimeter=0;fillColor=default;fontFamily=Roboto Condensed;fontSource=https%3A%2F%2Ffonts.googleapis.com%2Fcss%3Ffamily%3DRoboto%2BCondensed;" parent="1" edge="1">
          <mxGeometry width="50" height="50" relative="1" as="geometry">
            <mxPoint x="424" y="369.99999999999994" as="sourcePoint" />
            <mxPoint x="423.9" y="430.05" as="targetPoint" />
          </mxGeometry>
        </mxCell>
        <mxCell id="h67KXnezlHiRvos_DW-S-6" value="" style="shape=flexArrow;endArrow=classic;html=1;rounded=0;entryX=0.5;entryY=0;entryDx=0;entryDy=0;exitX=0.5;exitY=0.533;exitDx=0;exitDy=0;exitPerimeter=0;fillColor=default;fontFamily=Roboto Condensed;fontSource=https%3A%2F%2Ffonts.googleapis.com%2Fcss%3Ffamily%3DRoboto%2BCondensed;" parent="1" edge="1">
          <mxGeometry width="50" height="50" relative="1" as="geometry">
            <mxPoint x="434" y="379.99999999999994" as="sourcePoint" />
            <mxPoint x="433.9" y="440.05" as="targetPoint" />
          </mxGeometry>
        </mxCell>
        <mxCell id="h67KXnezlHiRvos_DW-S-7" value="" style="verticalLabelPosition=bottom;verticalAlign=top;html=1;shape=mxgraph.flowchart.or;fontFamily=Roboto Condensed;fontSource=https%3A%2F%2Ffonts.googleapis.com%2Fcss%3Ffamily%3DRoboto%2BCondensed;" parent="1" vertex="1">
          <mxGeometry x="369" y="300" width="50" height="50" as="geometry" />
        </mxCell>
        <mxCell id="h67KXnezlHiRvos_DW-S-9" value="" style="verticalLabelPosition=bottom;verticalAlign=top;html=1;shape=mxgraph.flowchart.or;fontFamily=Roboto Condensed;fontSource=https%3A%2F%2Ffonts.googleapis.com%2Fcss%3Ffamily%3DRoboto%2BCondensed;" parent="1" vertex="1">
          <mxGeometry x="379" y="310" width="50" height="50" as="geometry" />
        </mxCell>
        <mxCell id="h67KXnezlHiRvos_DW-S-10" value="" style="verticalLabelPosition=bottom;verticalAlign=top;html=1;shape=mxgraph.flowchart.or;fontFamily=Roboto Condensed;fontSource=https%3A%2F%2Ffonts.googleapis.com%2Fcss%3Ffamily%3DRoboto%2BCondensed;" parent="1" vertex="1">
          <mxGeometry x="389" y="320" width="50" height="50" as="geometry" />
        </mxCell>
        <mxCell id="h67KXnezlHiRvos_DW-S-11" value="" style="verticalLabelPosition=bottom;verticalAlign=top;html=1;shape=mxgraph.flowchart.or;fontFamily=Roboto Condensed;fontSource=https%3A%2F%2Ffonts.googleapis.com%2Fcss%3Ffamily%3DRoboto%2BCondensed;" parent="1" vertex="1">
          <mxGeometry x="399" y="330" width="50" height="50" as="geometry" />
        </mxCell>
        <mxCell id="h67KXnezlHiRvos_DW-S-12" value="" style="verticalLabelPosition=bottom;verticalAlign=top;html=1;shape=mxgraph.flowchart.or;fontFamily=Roboto Condensed;fontSource=https%3A%2F%2Ffonts.googleapis.com%2Fcss%3Ffamily%3DRoboto%2BCondensed;" parent="1" vertex="1">
          <mxGeometry x="409" y="340" width="50" height="50" as="geometry" />
        </mxCell>
        <mxCell id="h67KXnezlHiRvos_DW-S-14" value="binding/matching&lt;div&gt;table&lt;/div&gt;" style="text;align=left;verticalAlign=middle;whiteSpace=wrap;rounded=0;fontSize=11;fontFamily=Roboto Condensed;html=1;shadow=0;horizontal=1;fontSource=https%3A%2F%2Ffonts.googleapis.com%2Fcss%3Ffamily%3DRoboto%2BCondensed;" parent="1" vertex="1">
          <mxGeometry x="454" y="300" width="81" height="20" as="geometry" />
        </mxCell>
        <mxCell id="h67KXnezlHiRvos_DW-S-15" value="" style="shape=curlyBracket;whiteSpace=wrap;html=1;rounded=1;labelPosition=left;verticalLabelPosition=middle;align=right;verticalAlign=middle;rotation=136;fontFamily=Roboto Condensed;fontSource=https%3A%2F%2Ffonts.googleapis.com%2Fcss%3Ffamily%3DRoboto%2BCondensed;" parent="1" vertex="1">
          <mxGeometry x="431.32" y="278.51" width="20" height="95" as="geometry" />
        </mxCell>
        <mxCell id="h67KXnezlHiRvos_DW-S-16" value="" style="curved=1;endArrow=classic;html=1;rounded=0;entryX=0.145;entryY=0.145;entryDx=0;entryDy=0;entryPerimeter=0;exitX=0.5;exitY=0;exitDx=0;exitDy=0;fontFamily=Roboto Condensed;fontSource=https%3A%2F%2Ffonts.googleapis.com%2Fcss%3Ffamily%3DRoboto%2BCondensed;" parent="1" source="s6GvZxLl4K5e8J9JrSwZ-2" target="h67KXnezlHiRvos_DW-S-7" edge="1">
          <mxGeometry width="50" height="50" relative="1" as="geometry">
            <mxPoint x="334" y="350" as="sourcePoint" />
            <mxPoint x="384" y="300" as="targetPoint" />
            <Array as="points">
              <mxPoint x="540" y="230" />
              <mxPoint x="370" y="230" />
              <mxPoint x="350" y="280" />
            </Array>
          </mxGeometry>
        </mxCell>
        <mxCell id="tCBcID6sHDaUzBHMdhAB-10" value="&lt;font style=&quot;font-size: 11px;&quot;&gt;payload&lt;/font&gt;" style="shape=parallelogram;html=1;strokeWidth=1;perimeter=parallelogramPerimeter;whiteSpace=wrap;rounded=1;arcSize=12;size=0.23;fontFamily=Roboto Condensed;fontSource=https%3A%2F%2Ffonts.googleapis.com%2Fcss%3Ffamily%3DRoboto%2BCondensed;" parent="1" vertex="1">
          <mxGeometry x="334" y="245" width="70" height="40" as="geometry" />
        </mxCell>
        <mxCell id="o9HQPGMKs0vFa6GXH5yL-1" value="&lt;div align=&quot;left&quot;&gt;the payload has a routing key&lt;/div&gt;" style="text;align=left;verticalAlign=middle;whiteSpace=wrap;rounded=0;fontSize=11;fontFamily=Roboto Condensed;html=1;shadow=0;horizontal=1;fontSource=https%3A%2F%2Ffonts.googleapis.com%2Fcss%3Ffamily%3DRoboto%2BCondensed;" vertex="1" parent="1">
          <mxGeometry x="408.99999999999994" y="250" width="75" height="30" as="geometry" />
        </mxCell>
      </root>
    </mxGraphModel>
  </diagram>
</mxfile>
